<svg width="53" height="70" viewBox="0 0 53 70" fill="none" xmlns="http://www.w3.org/2000/svg">
<g clip-path="url(#clip0_6959_1005)">
<path d="M35 8.75C35 6.42936 34.0781 4.20376 32.4372 2.56282C30.7962 0.921872 28.5707 0 26.25 0C23.9294 0 21.7038 0.921872 20.0628 2.56282C18.4219 4.20376 17.5 6.42936 17.5 8.75C17.5 11.0706 18.4219 13.2962 20.0628 14.9372C21.7038 16.5781 23.9294 17.5 26.25 17.5C28.5707 17.5 30.7962 16.5781 32.4372 14.9372C34.0781 13.2962 35 11.0706 35 8.75ZM20.9043 23.1465C17.6641 21.998 14.8203 19.8242 12.8652 16.8848L10.1992 12.8789C8.85938 10.8691 6.15235 10.3359 4.12891 11.6758C2.10548 13.0156 1.57227 15.7363 2.91212 17.7461L5.5918 21.7383C8.06641 25.4434 11.4434 28.3555 15.3125 30.2695V65.625C15.3125 68.0449 17.2676 70 19.6875 70C22.1074 70 24.0625 68.0449 24.0625 65.625V52.5H28.4375V65.625C28.4375 68.0449 30.3926 70 32.8125 70C35.2324 70 37.1875 68.0449 37.1875 65.625V30.2969C41.166 28.3555 44.625 25.3477 47.127 21.5195L49.6152 17.7051C50.9277 15.6816 50.3535 12.9746 48.3301 11.6484C46.3066 10.3223 43.5996 10.8965 42.2734 12.9336L39.7852 16.7344C36.8047 21.3008 31.7324 24.0625 26.2773 24.0625C24.5547 24.0625 22.8731 23.7891 21.2734 23.2695C21.1504 23.2285 21.0273 23.1738 20.9043 23.1465Z" fill="#055F81"/>
</g>
<defs>
<clipPath id="clip0_6959_1005">
<rect width="52.5" height="70" fill="white"/>
</clipPath>
</defs>
</svg>
