<svg width="225" height="200" viewBox="0 0 225 200" fill="none" xmlns="http://www.w3.org/2000/svg">
<g clip-path="url(#clip0_6954_963)">
<path d="M0 25C0 11.2109 11.2109 0 25 0H87.5V50C87.5 56.9141 93.0859 62.5 100 62.5H150V77.5781C121.133 85.7422 100 112.266 100 143.75C100 166.836 111.367 187.227 128.789 199.727C127.539 199.922 126.289 200 125 200H25C11.2109 200 0 188.789 0 175V25ZM150 50H100V0L150 50ZM168.75 87.5C183.668 87.5 197.976 93.4263 208.525 103.975C219.074 114.524 225 128.832 225 143.75C225 158.668 219.074 172.976 208.525 183.525C197.976 194.074 183.668 200 168.75 200C153.832 200 139.524 194.074 128.975 183.525C118.426 172.976 112.5 158.668 112.5 143.75C112.5 128.832 118.426 114.524 128.975 103.975C139.524 93.4263 153.832 87.5 168.75 87.5ZM168.75 181.25C171.236 181.25 173.621 180.262 175.379 178.504C177.137 176.746 178.125 174.361 178.125 171.875C178.125 169.389 177.137 167.004 175.379 165.246C173.621 163.488 171.236 162.5 168.75 162.5C166.264 162.5 163.879 163.488 162.121 165.246C160.363 167.004 159.375 169.389 159.375 171.875C159.375 174.361 160.363 176.746 162.121 178.504C163.879 180.262 166.264 181.25 168.75 181.25ZM143.75 125.625V128.125C143.75 131.562 146.562 134.375 150 134.375C153.438 134.375 156.25 131.562 156.25 128.125V125.625C156.25 123.555 157.93 121.875 160 121.875H175.82C178.828 121.875 181.25 124.297 181.25 127.305C181.25 129.336 180.117 131.172 178.359 132.109L165.859 138.672C163.789 139.766 162.5 141.875 162.5 144.219V150C162.5 153.438 165.312 156.25 168.75 156.25C172.188 156.25 175 153.438 175 150V148.008L184.18 143.203C190.078 140.117 193.75 133.984 193.75 127.344C193.75 117.422 185.703 109.414 175.82 109.414H160C151.016 109.414 143.75 116.68 143.75 125.664V125.625Z" fill="#00506E"/>
</g>
<defs>
<clipPath id="clip0_6954_963">
<rect width="225" height="200" fill="white"/>
</clipPath>
</defs>
</svg>
