<svg width="113" height="100" viewBox="0 0 113 100" fill="none" xmlns="http://www.w3.org/2000/svg">
<g clip-path="url(#clip0_6954_973)">
<path d="M0 12.5C0 5.60547 5.60547 0 12.5 0H43.75V25C43.75 28.457 46.543 31.25 50 31.25H75V38.7891C60.5664 42.8711 50 56.1328 50 71.875C50 83.418 55.6836 93.6133 64.3945 99.8633C63.7695 99.9609 63.1445 100 62.5 100H12.5C5.60547 100 0 94.3945 0 87.5V12.5ZM75 25H50V0L75 25ZM56.25 71.875C56.25 64.4158 59.2132 57.2621 64.4876 51.9876C69.7621 46.7132 76.9158 43.75 84.375 43.75C91.8342 43.75 98.9879 46.7132 104.262 51.9876C109.537 57.2621 112.5 64.4158 112.5 71.875C112.5 79.3342 109.537 86.4879 104.262 91.7624C98.9879 97.0368 91.8342 100 84.375 100C76.9158 100 69.7621 97.0368 64.4876 91.7624C59.2132 86.4879 56.25 79.3342 56.25 71.875ZM97.5195 63.418C96.3086 62.207 94.3164 62.207 93.1055 63.418L81.25 75.2734L75.6445 69.668C74.4336 68.457 72.4414 68.457 71.2305 69.668C70.0195 70.8789 70.0195 72.8711 71.2305 74.082L79.043 81.8945C80.2539 83.1055 82.2461 83.1055 83.457 81.8945L97.5195 67.832C98.7305 66.6211 98.7305 64.6289 97.5195 63.418Z" fill="#00506E"/>
</g>
<defs>
<clipPath id="clip0_6954_973">
<rect width="112.5" height="100" fill="white"/>
</clipPath>
</defs>
</svg>
