<svg width="50" height="50" viewBox="0 0 50 50" fill="none" xmlns="http://www.w3.org/2000/svg">
<path d="M4.64844 29.336L22.2949 45.8106C23.0273 46.4942 23.9941 46.875 25 46.875C26.0059 46.875 26.9727 46.4942 27.7051 45.8106L45.3516 29.336C48.3203 26.5723 50 22.6953 50 18.6426V18.0762C50 11.25 45.0684 5.42972 38.3398 4.30668C33.8867 3.56449 29.3555 5.01957 26.1719 8.20316L25 9.37504L23.8281 8.20316C20.6445 5.01957 16.1133 3.56449 11.6602 4.30668C4.93164 5.42972 0 11.25 0 18.0762V18.6426C0 22.6953 1.67969 26.5723 4.64844 29.336Z" fill="#055F81"/>
</svg>
