<svg width="40" height="36" viewBox="0 0 40 36" fill="none" xmlns="http://www.w3.org/2000/svg">
<g clip-path="url(#clip0_6951_826)">
<path d="M10.2778 5.31944C10.2778 2.38194 12.6597 0 15.5972 0C17.0069 0 18.3611 0.5625 19.3542 1.55556L20 2.20139L20.6458 1.55556C21.6389 0.5625 22.9931 0 24.4028 0C27.3403 0 29.7222 2.38194 29.7222 5.31944C29.7222 6.72917 29.1597 8.08333 28.1667 9.07639L20.9792 16.2569C20.4375 16.7986 19.5556 16.7986 19.0139 16.2569L11.8333 9.07639C10.8403 8.08333 10.2778 6.72917 10.2778 5.31944ZM39.4583 23.3542C40.3681 24.5903 40.1042 26.3264 38.8681 27.2361L30.0764 33.7153C28.4514 34.9097 26.4931 35.5556 24.4722 35.5556H13.3333H2.22222C0.993056 35.5556 0 34.5625 0 33.3333V28.8889C0 27.6597 0.993056 26.6667 2.22222 26.6667H4.77778L7.89583 24.1667C9.47222 22.9028 11.4306 22.2222 13.4514 22.2222H18.8889H20H24.4444C25.6736 22.2222 26.6667 23.2153 26.6667 24.4444C26.6667 25.6736 25.6736 26.6667 24.4444 26.6667H20H18.8889C18.2778 26.6667 17.7778 27.1667 17.7778 27.7778C17.7778 28.3889 18.2778 28.8889 18.8889 28.8889H27.2639L35.5764 22.7639C36.8125 21.8542 38.5486 22.1181 39.4583 23.3542ZM13.4444 26.6667H13.3819C13.4028 26.6667 13.4236 26.6667 13.4444 26.6667Z" fill="#FE9829"/>
</g>
<defs>
<clipPath id="clip0_6951_826">
<rect width="40" height="35.5556" fill="white"/>
</clipPath>
</defs>
</svg>
