<svg width="113" height="100" viewBox="0 0 113 100" fill="none" xmlns="http://www.w3.org/2000/svg">
<g clip-path="url(#clip0_6954_967)">
<path d="M21.875 9.375C21.875 6.8886 22.8627 4.50403 24.6209 2.74587C26.379 0.98772 28.7636 0 31.25 0C33.7364 0 36.121 0.98772 37.8791 2.74587C39.6373 4.50403 40.625 6.8886 40.625 9.375C40.625 11.8614 39.6373 14.246 37.8791 16.0041C36.121 17.7623 33.7364 18.75 31.25 18.75C28.7636 18.75 26.379 17.7623 24.6209 16.0041C22.8627 14.246 21.875 11.8614 21.875 9.375ZM29.6875 68.75V93.75C29.6875 97.207 26.8945 100 23.4375 100C19.9805 100 17.1875 97.207 17.1875 93.75V50.1758L11.6015 59.4727C9.8242 62.4219 5.97655 63.3789 3.02733 61.6016C0.0781107 59.8242 -0.87892 55.9766 0.898423 53.0273L12.2851 34.082C15.6836 28.4375 21.7773 24.9805 28.3594 24.9805H34.1601C40.7422 24.9805 46.8359 28.4375 50.2344 34.082L59.0039 48.6719C55.8594 52.1094 53.418 56.1914 51.8555 60.6836C51.4844 60.332 51.1719 59.9219 50.8984 59.4531L45.3125 50.1758V93.75C45.3125 97.207 42.5195 100 39.0625 100C35.6055 100 32.8125 97.207 32.8125 93.75V68.75H29.6875ZM56.25 71.875C56.25 64.4158 59.2131 57.2621 64.4876 51.9876C69.7621 46.7132 76.9158 43.75 84.375 43.75C91.8342 43.75 98.9879 46.7132 104.262 51.9876C109.537 57.2621 112.5 64.4158 112.5 71.875C112.5 79.3342 109.537 86.4879 104.262 91.7624C98.9879 97.0368 91.8342 100 84.375 100C76.9158 100 69.7621 97.0368 64.4876 91.7624C59.2131 86.4879 56.25 79.3342 56.25 71.875ZM97.5195 63.418C96.3086 62.207 94.3164 62.207 93.1055 63.418L81.25 75.2734L75.6445 69.668C74.4336 68.457 72.4414 68.457 71.2305 69.668C70.0195 70.8789 70.0195 72.8711 71.2305 74.082L79.043 81.8945C80.2539 83.1055 82.2461 83.1055 83.457 81.8945L97.5195 67.832C98.7305 66.6211 98.7305 64.6289 97.5195 63.418Z" fill="#00506E"/>
</g>
<defs>
<clipPath id="clip0_6954_967">
<rect width="112.5" height="100" fill="white"/>
</clipPath>
</defs>
</svg>
