<svg width="70" height="70" viewBox="0 0 70 70" fill="none" xmlns="http://www.w3.org/2000/svg">
<g clip-path="url(#clip0_6959_995)">
<path d="M49.4238 0.16412C50.1074 0.451229 50.5996 1.06646 50.7363 1.79107L53.457 16.543L68.209 19.2501C68.9336 19.3868 69.5488 19.879 69.8359 20.5626C70.123 21.2461 70.041 22.0254 69.6172 22.6407L61.0996 35.0001L69.6172 47.3458C70.041 47.961 70.123 48.7403 69.8359 49.4239C69.5488 50.1075 68.9336 50.5997 68.209 50.7364L53.457 53.4571L50.7363 68.209C50.5996 68.9336 50.1074 69.5489 49.4238 69.836C48.7402 70.1231 47.9609 70.0411 47.3457 69.6172L35 61.0997L22.6543 69.6172C22.0391 70.0411 21.2598 70.1231 20.5762 69.836C19.8926 69.5489 19.4004 68.9336 19.2637 68.209L16.543 53.4571L1.79101 50.7364C1.0664 50.5997 0.451168 50.1075 0.164058 49.4239C-0.123051 48.7403 -0.0410196 47.961 0.382808 47.3458L8.90039 35.0001L0.382808 22.6544C-0.0410196 22.0391 -0.123051 21.2598 0.164058 20.5762C0.451168 19.8926 1.0664 19.4004 1.79101 19.2637L16.543 16.543L19.2637 1.79107C19.4004 1.06646 19.8926 0.451229 20.5762 0.16412C21.2598 -0.12299 22.0391 -0.0409586 22.6543 0.382869L35 8.90045L47.3457 0.382869C47.9609 -0.0409586 48.7402 -0.12299 49.4238 0.16412ZM21.875 35.0001C21.875 31.5191 23.2578 28.1807 25.7192 25.7193C28.1806 23.2579 31.519 21.8751 35 21.8751C38.481 21.8751 41.8194 23.2579 44.2808 25.7193C46.7422 28.1807 48.125 31.5191 48.125 35.0001C48.125 38.481 46.7422 41.8194 44.2808 44.2808C41.8194 46.7422 38.481 48.125 35 48.125C31.519 48.125 28.1806 46.7422 25.7192 44.2808C23.2578 41.8194 21.875 38.481 21.875 35.0001ZM52.5 35.0001C52.5 30.3588 50.6562 25.9076 47.3744 22.6257C44.0925 19.3438 39.6413 17.5001 35 17.5001C30.3587 17.5001 25.9075 19.3438 22.6256 22.6257C19.3437 25.9076 17.5 30.3588 17.5 35.0001C17.5 39.6413 19.3437 44.0925 22.6256 47.3744C25.9075 50.6563 30.3587 52.5 35 52.5C39.6413 52.5 44.0925 50.6563 47.3744 47.3744C50.6562 44.0925 52.5 39.6413 52.5 35.0001Z" fill="#055F81"/>
</g>
<defs>
<clipPath id="clip0_6959_995">
<rect width="70" height="70" fill="white"/>
</clipPath>
</defs>
</svg>
