<svg width="70" height="70" viewBox="0 0 70 70" fill="none" xmlns="http://www.w3.org/2000/svg">
<g clip-path="url(#clip0_6959_987)">
<path d="M21.9844 13.1934C23.8984 15.5176 26.2227 17.418 28.7519 18.9629C32.293 21.1231 36.0937 22.5039 39.375 23.2832V18.9766C36.3398 14.834 34.1797 9.77542 33.9883 3.82815C33.9336 2.28323 32.9629 0.888698 31.4727 0.492213C30.4336 0.218776 29.3125 0.464869 28.6016 1.28518C26.7832 3.39065 24.1309 7.38284 21.9844 13.2071V13.1934ZM43.75 19.6875V23.8711V24.0489V28.4375C35.4375 27.7403 18.457 22.4492 13.7676 6.94534C13.3164 5.46878 12.0176 4.37503 10.4727 4.37503C9.39257 4.37503 8.38086 4.90823 7.90234 5.87893C6.39843 9.00979 4.375 15.3262 4.375 24.0625C4.375 40.0449 15.3262 48.7403 20.5625 51.7891L1.61328 56.9571C0.916012 57.1485 0.355465 57.668 0.123043 58.3516C-0.109379 59.0352 0.013668 59.8008 0.437496 60.375C2.96679 63.7383 10.5684 70 21.875 70C22.3672 70 22.8594 69.836 23.2422 69.5215L33.5781 61.25H43.75C55.8359 61.25 65.625 51.461 65.625 39.375V17.5L69.7129 11.3614C69.8906 11.0879 70 10.7598 70 10.4317C70 9.50198 69.248 8.75003 68.3184 8.75003H54.6875C48.6445 8.75003 43.75 13.6446 43.75 19.6875ZM54.6875 17.5C55.2677 17.5 55.8241 17.7305 56.2343 18.1407C56.6445 18.551 56.875 19.1074 56.875 19.6875C56.875 20.2677 56.6445 20.8241 56.2343 21.2343C55.8241 21.6446 55.2677 21.875 54.6875 21.875C54.1073 21.875 53.5509 21.6446 53.1407 21.2343C52.7305 20.8241 52.5 20.2677 52.5 19.6875C52.5 19.1074 52.7305 18.551 53.1407 18.1407C53.5509 17.7305 54.1073 17.5 54.6875 17.5Z" fill="#055F81"/>
</g>
<defs>
<clipPath id="clip0_6959_987">
<rect width="70" height="70" fill="white"/>
</clipPath>
</defs>
</svg>
