<svg width="88" height="70" viewBox="0 0 88 70" fill="none" xmlns="http://www.w3.org/2000/svg">
<g clip-path="url(#clip0_6959_979)">
<path d="M44.2148 11.6484L30.9805 22.3672C28.7793 24.1445 28.3555 27.3438 30.0234 29.627C31.7871 32.0605 35.2188 32.5391 37.584 30.6934L51.1602 20.1387C52.1172 19.4004 53.4844 19.5645 54.2363 20.5215C54.9883 21.4785 54.8105 22.8457 53.8535 23.5977L50.9961 25.8125L75.2227 48.125H80.9375C84.5605 48.125 87.5 45.1855 87.5 41.5625V24.0625C87.5 20.4395 84.5605 17.5 80.9375 17.5H70.5469H70H69.9043L69.3711 17.1582L59.4453 10.8008C57.3535 9.46094 54.9062 8.75 52.418 8.75C49.4375 8.75 46.5391 9.77539 44.2148 11.6484ZM47.332 28.6562L40.2637 34.1523C35.957 37.5156 29.709 36.6406 26.4824 32.2109C23.4473 28.041 24.2129 22.2168 28.2188 18.9766L39.5938 9.77539C38.0078 9.10547 36.2988 8.76367 34.5625 8.76367C31.9922 8.75 29.4902 9.51563 27.3438 10.9375L17.5 17.5H6.5625C2.93945 17.5 0 20.4395 0 24.0625V41.5625C0 45.1855 2.93945 48.125 6.5625 48.125H21.3555L33.8516 59.5273C36.5312 61.9746 40.6738 61.7832 43.1211 59.1035C43.873 58.2695 44.3789 57.2988 44.6387 56.2871L46.9629 58.4199C49.6289 60.8672 53.7852 60.6895 56.2324 58.0234C56.8477 57.3535 57.2988 56.5742 57.5859 55.7676C60.2383 57.5449 63.8477 57.1758 66.0762 54.7422C68.5234 52.0762 68.3457 47.9199 65.6797 45.4727L47.332 28.6562Z" fill="#055F81"/>
</g>
<defs>
<clipPath id="clip0_6959_979">
<rect width="87.5" height="70" fill="white"/>
</clipPath>
</defs>
</svg>
