<svg width="225" height="200" viewBox="0 0 225 200" fill="none" xmlns="http://www.w3.org/2000/svg">
<g clip-path="url(#clip0_6954_957)">
<path d="M18.5938 117.344L89.1797 183.242C92.1094 185.977 95.9766 187.5 100 187.5C104.023 187.5 107.891 185.977 110.82 183.242L111.836 182.305C104.375 171.328 100 158.047 100 143.75C100 105.781 130.781 75.0001 168.75 75.0001C179.805 75.0001 190.234 77.6173 199.492 82.2267C199.844 79.6876 200 77.1486 200 74.5705V72.3048C200 45.0001 180.273 21.7189 153.359 17.2267C135.547 14.258 117.422 20.0783 104.688 32.8126L100 37.5001L95.3125 32.8126C82.5781 20.0783 64.4531 14.258 46.6406 17.2267C19.7266 21.7189 0 45.0001 0 72.3048V74.5705C0 90.7814 6.71875 106.289 18.5938 117.344ZM225 143.75C225 128.832 219.074 114.524 208.525 103.975C197.976 93.4265 183.668 87.5001 168.75 87.5001C153.832 87.5001 139.524 93.4265 128.975 103.975C118.426 114.524 112.5 128.832 112.5 143.75C112.5 158.669 118.426 172.976 128.975 183.525C139.524 194.074 153.832 200 168.75 200C183.668 200 197.976 194.074 208.525 183.525C219.074 172.976 225 158.669 225 143.75ZM195.039 126.836C197.461 129.258 197.461 133.242 195.039 135.664L166.914 163.789C164.492 166.211 160.508 166.211 158.086 163.789L142.461 148.164C140.039 145.742 140.039 141.758 142.461 139.336C144.883 136.914 148.867 136.914 151.289 139.336L162.5 150.547L186.211 126.836C188.633 124.414 192.617 124.414 195.039 126.836Z" fill="#00506E"/>
</g>
<defs>
<clipPath id="clip0_6954_957">
<rect width="225" height="200" fill="white"/>
</clipPath>
</defs>
</svg>
