<svg width="70" height="70" viewBox="0 0 70 70" fill="none" xmlns="http://www.w3.org/2000/svg">
<g clip-path="url(#clip0_6959_1003)">
<path d="M20.7949 5.22262C22.1484 6.43942 22.2578 8.50387 21.041 9.85739L11.1973 20.7949C10.5957 21.4648 9.74805 21.8613 8.8457 21.875C7.94336 21.8886 7.08203 21.5468 6.43945 20.9179L0.957031 15.4492C-0.314453 14.164 -0.314453 12.0859 0.957031 10.8007C2.22852 9.51559 4.32031 9.51559 5.5918 10.8007L8.61328 13.8222L16.1465 5.45505C17.3633 4.10153 19.4277 3.99215 20.7812 5.20895L20.7949 5.22262ZM20.7949 27.0976C22.1484 28.3144 22.2578 30.3789 21.041 31.7324L11.1973 42.6699C10.5957 43.3398 9.74805 43.7363 8.8457 43.75C7.94336 43.7636 7.08203 43.4218 6.43945 42.7929L0.957031 37.3242C-0.328125 36.039 -0.328125 33.9609 0.957031 32.6894C2.24219 31.4179 4.32031 31.4043 5.5918 32.6894L8.61328 35.7109L16.1465 27.3437C17.3633 25.9902 19.4277 25.8808 20.7812 27.0976H20.7949ZM30.625 13.125C30.625 10.705 32.5801 8.74997 35 8.74997H65.625C68.0449 8.74997 70 10.705 70 13.125C70 15.5449 68.0449 17.5 65.625 17.5H35C32.5801 17.5 30.625 15.5449 30.625 13.125ZM30.625 35C30.625 32.58 32.5801 30.625 35 30.625H65.625C68.0449 30.625 70 32.58 70 35C70 37.4199 68.0449 39.375 65.625 39.375H35C32.5801 39.375 30.625 37.4199 30.625 35ZM21.875 56.875C21.875 54.455 23.8301 52.5 26.25 52.5H65.625C68.0449 52.5 70 54.455 70 56.875C70 59.2949 68.0449 61.25 65.625 61.25H26.25C23.8301 61.25 21.875 59.2949 21.875 56.875ZM6.5625 50.3125C8.30298 50.3125 9.97218 51.0039 11.2029 52.2346C12.4336 53.4653 13.125 55.1345 13.125 56.875C13.125 58.6154 12.4336 60.2846 11.2029 61.5154C9.97218 62.7461 8.30298 63.4375 6.5625 63.4375C4.82202 63.4375 3.15282 62.7461 1.92211 61.5154C0.691404 60.2846 -3.91155e-08 58.6154 -3.91155e-08 56.875C-3.91155e-08 55.1345 0.691404 53.4653 1.92211 52.2346C3.15282 51.0039 4.82202 50.3125 6.5625 50.3125Z" fill="#055F81"/>
</g>
<defs>
<clipPath id="clip0_6959_1003">
<rect width="70" height="70" fill="white"/>
</clipPath>
</defs>
</svg>
