<svg width="30" height="30" viewBox="0 0 30 30" fill="none" xmlns="http://www.w3.org/2000/svg">
<g clip-path="url(#clip0_464_305)">
<path d="M14.9941 7.08398L15.5273 6.16406C15.8555 5.58984 16.5879 5.39648 17.1621 5.72461C17.7363 6.05273 17.9297 6.78516 17.6016 7.35937L12.4746 16.2363H16.1836C17.3848 16.2363 18.0586 17.6484 17.5371 18.627H6.66797C6.00586 18.627 5.47266 18.0938 5.47266 17.4316C5.47266 16.7695 6.00586 16.2363 6.66797 16.2363H9.71484L13.6172 9.47461L12.3984 7.35937C12.0703 6.78516 12.2637 6.05859 12.8379 5.72461C13.4121 5.39648 14.1387 5.58984 14.4727 6.16406L14.9941 7.08398ZM10.3828 19.8574L9.23438 21.8496C8.90625 22.4238 8.17383 22.6172 7.59961 22.2891C7.02539 21.9609 6.83203 21.2285 7.16016 20.6543L8.01563 19.1777C8.97656 18.8789 9.76172 19.1074 10.3828 19.8574ZM20.2793 16.2422H23.3906C24.0527 16.2422 24.5859 16.7754 24.5859 17.4375C24.5859 18.0996 24.0527 18.6328 23.3906 18.6328H21.6621L22.8281 20.6543C23.1563 21.2285 22.9629 21.9551 22.3887 22.2891C21.8145 22.6172 21.0879 22.4238 20.7539 21.8496C18.791 18.4453 17.3145 15.8965 16.3359 14.1973C15.334 12.4688 16.0488 10.7344 16.7578 10.1484C17.543 11.4961 18.7148 13.5293 20.2793 16.2422ZM15 0.46875C6.97266 0.46875 0.46875 6.97266 0.46875 15C0.46875 23.0273 6.97266 29.5312 15 29.5312C23.0273 29.5312 29.5312 23.0273 29.5312 15C29.5312 6.97266 23.0273 0.46875 15 0.46875ZM27.6562 15C27.6562 21.9551 22.0254 27.6562 15 27.6562C8.04492 27.6562 2.34375 22.0254 2.34375 15C2.34375 8.04492 7.97461 2.34375 15 2.34375C21.9551 2.34375 27.6562 7.97461 27.6562 15Z" fill="#F7F7F7"/>
</g>
<defs>
<clipPath id="clip0_464_305">
<rect width="30" height="30" fill="white"/>
</clipPath>
</defs>
</svg>
