<svg width="100" height="100" viewBox="0 0 100 100" fill="none" xmlns="http://www.w3.org/2000/svg">
<g clip-path="url(#clip0_464_400)">
<path d="M31.25 18.75C31.25 13.7772 33.2254 9.00805 36.7417 5.49175C40.2581 1.97544 45.0272 0 50 0C54.9728 0 59.7419 1.97544 63.2583 5.49175C66.7746 9.00805 68.75 13.7772 68.75 18.75C68.75 23.7228 66.7746 28.4919 63.2583 32.0083C59.7419 35.5246 54.9728 37.5 50 37.5C45.0272 37.5 40.2581 35.5246 36.7417 32.0083C33.2254 28.4919 31.25 23.7228 31.25 18.75ZM46.875 48.4375V100L37.4219 95.2734C33.3398 93.2422 28.9258 91.9531 24.375 91.5039L5.625 89.6289C2.44141 89.2969 0 86.6211 0 83.3984V43.75C0 40.293 2.79297 37.5 6.25 37.5H12.168C24.5898 37.5 36.6992 41.3281 46.875 48.4375ZM53.125 100V48.4375C63.3008 41.3281 75.4102 37.5 87.832 37.5H93.75C97.207 37.5 100 40.293 100 43.75V83.3984C100 86.6016 97.5586 89.2969 94.375 89.6094L75.625 91.4844C71.0938 91.9336 66.6602 93.2227 62.5781 95.2539L53.125 100Z" fill="white" fill-opacity="0.4"/>
</g>
<defs>
<clipPath id="clip0_464_400">
<rect width="100" height="100" fill="white"/>
</clipPath>
</defs>
</svg>
