<svg width="29" height="25" viewBox="0 0 29 25" fill="none" xmlns="http://www.w3.org/2000/svg">
<g clip-path="url(#clip0_424_47)">
<path d="M12.3224 23.0225C12.8556 23.208 13.4283 22.8223 13.4283 22.2656V3.83789C13.4283 3.63281 13.3493 3.42773 13.1814 3.30078C12.2138 2.53906 9.99222 1.5625 7.10909 1.5625C4.61597 1.5625 2.28577 2.21191 0.893573 2.73926C0.335707 2.9541 0 3.50098 0 4.0918V22.1729C0 22.7539 0.631919 23.1592 1.18978 22.9785C2.7449 22.4658 5.20839 21.875 7.10909 21.875C8.78268 21.875 11.0092 22.5586 12.3224 23.0225ZM16.1139 23.0225C17.4271 22.5586 19.6537 21.875 21.3273 21.875C23.228 21.875 25.6915 22.4658 27.2466 22.9785C27.8044 23.1641 28.4363 22.7539 28.4363 22.1729V4.0918C28.4363 3.50098 28.1006 2.9541 27.5428 2.74414C26.1506 2.21191 23.8204 1.5625 21.3273 1.5625C18.4441 1.5625 16.2225 2.53906 15.2549 3.30078C15.092 3.42773 15.0081 3.63281 15.0081 3.83789V22.2656C15.0081 22.8223 15.5857 23.208 16.1139 23.0225Z" fill="#505050"/>
</g>
<defs>
<clipPath id="clip0_424_47">
<rect width="28.4363" height="25" fill="white"/>
</clipPath>
</defs>
</svg>
