<svg width="50" height="40" viewBox="0 0 50 40" fill="none" xmlns="http://www.w3.org/2000/svg">
<g clip-path="url(#clip0_454_107)">
<path d="M12.5 5C12.5 2.24219 14.7422 0 17.5 0H45C47.7578 0 50 2.24219 50 5V27.5C50 30.2578 47.7578 32.5 45 32.5H26.3125C25.3906 30.5078 23.9766 28.7891 22.2188 27.5H30V25C30 23.6172 31.1172 22.5 32.5 22.5H37.5C38.8828 22.5 40 23.6172 40 25V27.5H45V5H17.5V8.83594C16.0312 7.98438 14.3203 7.5 12.5 7.5V5ZM12.5 10C13.4849 10 14.4602 10.194 15.3701 10.5709C16.2801 10.9478 17.1069 11.5003 17.8033 12.1967C18.4997 12.8931 19.0522 13.7199 19.4291 14.6299C19.806 15.5398 20 16.5151 20 17.5C20 18.4849 19.806 19.4602 19.4291 20.3701C19.0522 21.2801 18.4997 22.1069 17.8033 22.8033C17.1069 23.4997 16.2801 24.0522 15.3701 24.4291C14.4602 24.806 13.4849 25 12.5 25C11.5151 25 10.5398 24.806 9.62987 24.4291C8.71993 24.0522 7.89314 23.4997 7.1967 22.8033C6.50026 22.1069 5.94781 21.2801 5.5709 20.3701C5.19399 19.4602 5 18.4849 5 17.5C5 16.5151 5.19399 15.5398 5.5709 14.6299C5.94781 13.7199 6.50026 12.8931 7.1967 12.1967C7.89314 11.5003 8.71993 10.9478 9.62987 10.5709C10.5398 10.194 11.5151 10 12.5 10ZM10.4141 27.5H14.5781C20.3359 27.5 25 32.1641 25 37.9141C25 39.0625 24.0703 40 22.9141 40H2.08594C0.929688 40 0 39.0703 0 37.9141C0 32.1641 4.66406 27.5 10.4141 27.5Z" fill="#E8E8E8"/>
</g>
<defs>
<clipPath id="clip0_454_107">
<rect width="50" height="40" fill="white"/>
</clipPath>
</defs>
</svg>
