<svg width="125" height="101" viewBox="0 0 125 101" fill="none" xmlns="http://www.w3.org/2000/svg">
<g clip-path="url(#clip0_464_360)">
<path d="M31.25 12.6794C31.25 5.78491 36.8555 0.179443 43.75 0.179443H112.5C119.395 0.179443 125 5.78491 125 12.6794V68.9294C125 75.824 119.395 81.4294 112.5 81.4294H65.7812C63.4766 76.449 59.9414 72.1521 55.5469 68.9294H75V62.6794C75 59.2224 77.793 56.4294 81.25 56.4294H93.75C97.207 56.4294 100 59.2224 100 62.6794V68.9294H112.5V12.6794H43.75V22.2693C40.0781 20.1404 35.8008 18.9294 31.25 18.9294V12.6794ZM31.25 25.1794C33.7123 25.1794 36.1505 25.6644 38.4253 26.6067C40.7002 27.549 42.7672 28.9301 44.5083 30.6712C46.2494 32.4123 47.6305 34.4793 48.5727 36.7541C49.515 39.029 50 41.4672 50 43.9294C50 46.3917 49.515 48.8299 48.5727 51.1048C47.6305 53.3796 46.2494 55.4466 44.5083 57.1877C42.7672 58.9288 40.7002 60.3099 38.4253 61.2522C36.1505 62.1945 33.7123 62.6794 31.25 62.6794C28.7877 62.6794 26.3495 62.1945 24.0747 61.2522C21.7998 60.3099 19.7328 58.9288 17.9917 57.1877C16.2506 55.4466 14.8695 53.3796 13.9273 51.1048C12.985 48.8299 12.5 46.3917 12.5 43.9294C12.5 41.4672 12.985 39.029 13.9273 36.7541C14.8695 34.4793 16.2506 32.4123 17.9917 30.6712C19.7328 28.9301 21.7998 27.549 24.0747 26.6067C26.3495 25.6644 28.7877 25.1794 31.25 25.1794ZM26.0352 68.9294H36.4453C50.8398 68.9294 62.5 80.5896 62.5 94.9646C62.5 97.8357 60.1758 100.179 57.2852 100.179H5.21484C2.32422 100.179 0 97.8552 0 94.9646C0 80.5896 11.6602 68.9294 26.0352 68.9294Z" fill="white" fill-opacity="0.4"/>
</g>
<defs>
<clipPath id="clip0_464_360">
<rect width="125" height="100" fill="white" transform="translate(0 0.179443)"/>
</clipPath>
</defs>
</svg>
