<svg width="40" height="40" viewBox="0 0 40 40" fill="none" xmlns="http://www.w3.org/2000/svg">
<path d="M5 5C5 3.61719 3.88281 2.5 2.5 2.5C1.11719 2.5 0 3.61719 0 5V31.25C0 34.7031 2.79687 37.5 6.25 37.5H37.5C38.8828 37.5 40 36.3828 40 35C40 33.6172 38.8828 32.5 37.5 32.5H6.25C5.5625 32.5 5 31.9375 5 31.25V5ZM36.7656 11.7656C37.7422 10.7891 37.7422 9.20313 36.7656 8.22656C35.7891 7.25 34.2031 7.25 33.2266 8.22656L25 16.4609L20.5156 11.9766C19.5391 11 17.9531 11 16.9766 11.9766L8.22656 20.7266C7.25 21.7031 7.25 23.2891 8.22656 24.2656C9.20313 25.2422 10.7891 25.2422 11.7656 24.2656L18.75 17.2891L23.2344 21.7734C24.2109 22.75 25.7969 22.75 26.7734 21.7734L36.7734 11.7734L36.7656 11.7656Z" fill="#E8E8E8"/>
</svg>
