<svg width="98" height="80" viewBox="0 0 98 80" fill="none" xmlns="http://www.w3.org/2000/svg">
<g clip-path="url(#clip0_464_338)">
<path d="M13.4513 48.2969C14.946 45.4375 14.4884 41.9219 12.3075 39.5781C9.05888 36.0781 7.3202 31.875 7.3202 27.5C7.3202 17.5781 17.0507 7.5 31.7227 7.5C46.3947 7.5 56.1252 17.5781 56.1252 27.5C56.1252 37.4219 46.3947 47.5 31.7227 47.5C29.7248 47.5 27.7878 47.2969 25.9576 46.9375C24.3715 46.625 22.7243 46.8438 21.2754 47.5938C20.6501 47.9219 20.0095 48.2344 19.3537 48.5313C16.9134 49.6563 14.3359 50.6406 11.7432 51.3438C12.1702 50.625 12.5667 49.9219 12.948 49.2188C13.1158 48.9219 13.2836 48.6094 13.4361 48.2969H13.4513ZM-0.000552738 27.5C-0.000552738 34.0312 2.62272 40.0156 6.99992 44.7344C6.86266 45 6.71014 45.2812 6.57287 45.5312C5.00196 48.4062 3.17177 51.2344 0.990799 53.6719C-0.0158043 54.7656 -0.275081 56.3594 0.289227 57.7187C0.884038 59.1094 2.19567 60 3.65982 60C10.218 60 16.8524 57.9219 22.3735 55.3594C23.1056 55.0156 23.8377 54.6562 24.5392 54.2969C26.8422 54.7656 29.252 55 31.7227 55C49.2468 55 63.446 42.6875 63.446 27.5C63.446 12.3125 49.2468 0 31.7227 0C14.1987 0 -0.000552738 12.3125 -0.000552738 27.5ZM65.8862 75C68.357 75 70.7515 74.75 73.0697 74.2969C73.7713 74.6562 74.5034 75.0156 75.2355 75.3594C80.7565 77.9219 87.391 80 93.9491 80C95.4133 80 96.7249 79.1094 97.3045 77.7344C97.884 76.3594 97.6095 74.7656 96.6029 73.6875C94.4372 71.25 92.607 68.4219 91.0208 65.5469C90.8836 65.2812 90.731 65.0156 90.5938 64.75C94.9862 60.0156 97.6095 54.0312 97.6095 47.5C97.6095 32.75 84.2034 20.7031 67.3809 20.0312C68.0062 22.4062 68.3265 24.9062 68.3265 27.5V27.5938C81.6259 28.6406 90.2888 38.1406 90.2888 47.5C90.2888 51.875 88.5501 56.0781 85.3015 59.5625C83.1205 61.9063 82.663 65.4375 84.1576 68.2812C84.3254 68.5938 84.4932 68.9062 84.6457 69.2031C85.027 69.9062 85.4388 70.6094 85.8505 71.3281C83.2578 70.625 80.6803 69.6563 78.24 68.5156C77.5842 68.2188 76.9436 67.9062 76.3183 67.5781C74.8694 66.8281 73.2223 66.6094 71.6361 66.9219C69.7906 67.2969 67.8689 67.4844 65.871 67.4844C56.4608 67.4844 49.0943 63.3438 45.0068 57.75C42.5666 58.5938 40.0043 59.2187 37.3811 59.5937C42.5513 68.7187 53.38 75 65.8862 75Z" fill="white" fill-opacity="0.7"/>
</g>
<defs>
<clipPath id="clip0_464_338">
<rect width="97.6101" height="80" fill="white"/>
</clipPath>
</defs>
</svg>
