<svg width="100" height="101" viewBox="0 0 100 101" fill="none" xmlns="http://www.w3.org/2000/svg">
<g clip-path="url(#clip0_464_354)">
<path d="M90.625 50.1794C90.625 39.405 86.3449 29.0719 78.7262 21.4532C71.1075 13.8346 60.7744 9.55444 50 9.55444C39.2256 9.55444 28.8925 13.8346 21.2738 21.4532C13.6551 29.0719 9.375 39.405 9.375 50.1794C9.375 60.9539 13.6551 71.287 21.2738 78.9057C28.8925 86.5243 39.2256 90.8044 50 90.8044C60.7744 90.8044 71.1075 86.5243 78.7262 78.9057C86.3449 71.287 90.625 60.9539 90.625 50.1794ZM0 50.1794C0 36.9186 5.26784 24.2009 14.6447 14.8241C24.0215 5.44729 36.7392 0.179443 50 0.179443C63.2608 0.179443 75.9785 5.44729 85.3553 14.8241C94.7322 24.2009 100 36.9186 100 50.1794C100 63.4403 94.7322 76.158 85.3553 85.5348C75.9785 94.9116 63.2608 100.179 50 100.179C36.7392 100.179 24.0215 94.9116 14.6447 85.5348C5.26784 76.158 0 63.4403 0 50.1794ZM25.5273 61.488C24.707 58.8318 26.9141 56.4294 29.6875 56.4294H71.1914C73.9648 56.4294 76.1719 58.8513 75.3516 61.488C72.0703 72.1326 62.1484 79.8669 50.4297 79.8669C38.7109 79.8669 28.7891 72.1326 25.5273 61.488ZM28.2031 37.6794C28.2031 36.0218 28.8616 34.4321 30.0337 33.26C31.2058 32.0879 32.7955 31.4294 34.4531 31.4294C36.1107 31.4294 37.7004 32.0879 38.8725 33.26C40.0446 34.4321 40.7031 36.0218 40.7031 37.6794C40.7031 39.337 40.0446 40.9268 38.8725 42.0989C37.7004 43.271 36.1107 43.9294 34.4531 43.9294C32.7955 43.9294 31.2058 43.271 30.0337 42.0989C28.8616 40.9268 28.2031 39.337 28.2031 37.6794ZM60.5859 41.9177C59.1016 43.4998 56.6406 43.5779 55.0586 42.0935C53.4766 40.6091 53.3984 38.1482 54.8828 36.5662C57.7148 33.5388 61.7578 32.2107 65.5469 32.2107C69.3359 32.2107 73.3789 33.5388 76.2109 36.5662C77.6953 38.1482 77.5977 40.6091 76.0352 42.0935C74.4727 43.5779 71.9922 43.4802 70.5078 41.9177C69.4336 40.7849 67.6172 40.0232 65.5469 40.0232C63.4766 40.0232 61.6602 40.7654 60.5859 41.9177Z" fill="white" fill-opacity="0.4"/>
</g>
<defs>
<clipPath id="clip0_464_354">
<rect width="100" height="100" fill="white" transform="translate(0 0.179443)"/>
</clipPath>
</defs>
</svg>
