<svg width="100" height="100" viewBox="0 0 100 100" fill="none" xmlns="http://www.w3.org/2000/svg">
<g clip-path="url(#clip0_464_356)">
<path d="M90.625 50C90.625 39.2256 86.3449 28.8925 78.7262 21.2738C71.1075 13.6551 60.7744 9.375 50 9.375C39.2256 9.375 28.8925 13.6551 21.2738 21.2738C13.6551 28.8925 9.375 39.2256 9.375 50C9.375 60.7744 13.6551 71.1075 21.2738 78.7262C28.8925 86.3449 39.2256 90.625 50 90.625C60.7744 90.625 71.1075 86.3449 78.7262 78.7262C86.3449 71.1075 90.625 60.7744 90.625 50ZM0 50C0 36.7392 5.26784 24.0215 14.6447 14.6447C24.0215 5.26784 36.7392 0 50 0C63.2608 0 75.9785 5.26784 85.3553 14.6447C94.7322 24.0215 100 36.7392 100 50C100 63.2608 94.7322 75.9785 85.3553 85.3553C75.9785 94.7322 63.2608 100 50 100C36.7392 100 24.0215 94.7322 14.6447 85.3553C5.26784 75.9785 0 63.2608 0 50ZM34.6875 62.1289C37.6563 65.332 42.7344 68.75 50 68.75C57.2656 68.75 62.3437 65.332 65.3125 62.1289C67.0703 60.2344 70.0391 60.0977 71.9336 61.8555C73.8281 63.6133 73.9648 66.582 72.207 68.4766C67.9102 73.125 60.4883 78.125 50.0195 78.125C39.5508 78.125 32.1094 73.1445 27.832 68.4766C26.0742 66.582 26.1914 63.6133 28.1055 61.8555C30.0195 60.0977 32.9688 60.2148 34.7266 62.1289H34.6875ZM42.5 44.6875L42.4609 44.6484C42.4219 44.6094 42.3828 44.5508 42.3242 44.4727C42.207 44.3164 42.0117 44.082 41.7773 43.8086C41.2891 43.2617 40.6055 42.5195 39.7852 41.7969C38.0664 40.2734 36.1133 39.0625 34.375 39.0625C32.6367 39.0625 30.6836 40.2734 28.9648 41.7969C28.1445 42.5195 27.4609 43.2617 26.9727 43.8086C26.7383 44.082 26.543 44.3164 26.4258 44.4727C26.3672 44.5508 26.3086 44.6094 26.2891 44.6484L26.25 44.6875C25.8398 45.2344 25.1367 45.4492 24.5117 45.2344C23.8867 45.0195 23.4375 44.4336 23.4375 43.75C23.4375 40.2539 24.7461 36.7969 26.6797 34.2187C28.5938 31.6797 31.3477 29.6875 34.375 29.6875C37.4023 29.6875 40.1562 31.6797 42.0703 34.2187C44.0039 36.7969 45.3125 40.2539 45.3125 43.75C45.3125 44.4141 44.8828 45.0195 44.2383 45.2344C43.5938 45.4492 42.8906 45.2344 42.5 44.6875ZM73.75 44.6875L73.7109 44.6484C73.6719 44.6094 73.6328 44.5508 73.5742 44.4727C73.457 44.3164 73.2617 44.082 73.0273 43.8086C72.5391 43.2617 71.8555 42.5195 71.0352 41.7969C69.3164 40.2734 67.3633 39.0625 65.625 39.0625C63.8867 39.0625 61.9336 40.2734 60.2148 41.7969C59.3945 42.5195 58.7109 43.2617 58.2227 43.8086C57.9883 44.082 57.793 44.3164 57.6758 44.4727C57.6172 44.5508 57.5586 44.6094 57.5391 44.6484L57.5 44.6875C57.0898 45.2344 56.3867 45.4492 55.7617 45.2344C55.1367 45.0195 54.6875 44.4336 54.6875 43.75C54.6875 40.2539 55.9961 36.7969 57.9297 34.2187C59.8438 31.6797 62.5977 29.6875 65.625 29.6875C68.6523 29.6875 71.4062 31.6797 73.3203 34.2187C75.2539 36.7969 76.5625 40.2539 76.5625 43.75C76.5625 44.4141 76.1328 45.0195 75.4883 45.2344C74.8438 45.4492 74.1406 45.2344 73.75 44.6875Z" fill="white" fill-opacity="0.4"/>
</g>
<defs>
<clipPath id="clip0_464_356">
<rect width="100" height="100" fill="white"/>
</clipPath>
</defs>
</svg>
