<svg width="30" height="30" viewBox="0 0 30 30" fill="none" xmlns="http://www.w3.org/2000/svg">
<g clip-path="url(#clip0_454_87)">
<path d="M11.1621 4.03125L13.2012 7.5H13.125H8.90625C7.61133 7.5 6.5625 6.45117 6.5625 5.15625C6.5625 3.86133 7.61133 2.8125 8.90625 2.8125H9.03516C9.9082 2.8125 10.7227 3.27539 11.1621 4.03125ZM3.75 5.15625C3.75 6 3.95508 6.79688 4.3125 7.5H1.875C0.837891 7.5 0 8.33789 0 9.375V13.125C0 14.1621 0.837891 15 1.875 15H28.125C29.1621 15 30 14.1621 30 13.125V9.375C30 8.33789 29.1621 7.5 28.125 7.5H25.6875C26.0449 6.79688 26.25 6 26.25 5.15625C26.25 2.30859 23.9414 0 21.0938 0H20.9648C19.0957 0 17.3613 0.990234 16.4121 2.60156L15 5.00977L13.5879 2.60742C12.6387 0.990234 10.9043 0 9.03516 0H8.90625C6.05859 0 3.75 2.30859 3.75 5.15625ZM23.4375 5.15625C23.4375 6.45117 22.3887 7.5 21.0938 7.5H16.875H16.7988L18.8379 4.03125C19.2832 3.27539 20.0918 2.8125 20.9648 2.8125H21.0938C22.3887 2.8125 23.4375 3.86133 23.4375 5.15625ZM1.875 16.875V27.1875C1.875 28.7402 3.13477 30 4.6875 30H13.125V16.875H1.875ZM16.875 30H25.3125C26.8652 30 28.125 28.7402 28.125 27.1875V16.875H16.875V30Z" fill="#FBFBFB"/>
</g>
<defs>
<clipPath id="clip0_454_87">
<rect width="30" height="30" fill="white"/>
</clipPath>
</defs>
</svg>
