<svg width="40" height="40" viewBox="0 0 40 40" fill="none" xmlns="http://www.w3.org/2000/svg">
<path d="M20 6.25C11.7109 6.25 4.875 12.4531 3.875 20.4688C4.60937 20.1719 5.40625 20 6.25 20C8.32031 20 10 21.6797 10 23.75V33.75C10 35.8203 8.32031 37.5 6.25 37.5C2.79687 37.5 0 34.7031 0 31.25V30V26.25V22.5C0 11.4531 8.95313 2.5 20 2.5C31.0469 2.5 40 11.4531 40 22.5V26.25V30V31.25C40 34.7031 37.2031 37.5 33.75 37.5C31.6797 37.5 30 35.8203 30 33.75V23.75C30 21.6797 31.6797 20 33.75 20C34.5938 20 35.3906 20.1641 36.125 20.4688C35.125 12.4531 28.2891 6.25 20 6.25Z" fill="#E8E8E8"/>
</svg>
