<svg width="113" height="100" viewBox="0 0 113 100" fill="none" xmlns="http://www.w3.org/2000/svg">
<g clip-path="url(#clip0_464_362)">
<path d="M69.8633 1.66016C67.4609 -0.546875 63.7695 -0.546875 61.3867 1.66016L20.7617 39.1602C18.9258 40.8398 18.2813 43.457 19.1016 45.8008C36.1133 50.7422 49.4922 64.1992 54.3164 81.2695H90.625C95.8008 81.2695 100 77.0703 100 71.8945V50H106.25C108.828 50 111.133 48.418 112.07 46.0352C113.008 43.6523 112.383 40.918 110.488 39.1602L69.8633 1.66016ZM56.25 40.625C56.25 38.9063 57.6562 37.5 59.375 37.5H71.875C73.5938 37.5 75 38.9063 75 40.625V53.125C75 54.8438 73.5938 56.25 71.875 56.25H59.375C57.6562 56.25 56.25 54.8438 56.25 53.125V40.625ZM4.6875 50C2.08984 50 0 52.0898 0 54.6875C0 57.2852 2.08984 59.375 4.6875 59.375C24.5312 59.375 40.625 75.4688 40.625 95.3125C40.625 97.9102 42.7148 100 45.3125 100C47.9102 100 50 97.9102 50 95.3125C50 70.293 29.707 50 4.6875 50ZM6.25 100C7.9076 100 9.49732 99.3415 10.6694 98.1694C11.8415 96.9973 12.5 95.4076 12.5 93.75C12.5 92.0924 11.8415 90.5027 10.6694 89.3306C9.49732 88.1585 7.9076 87.5 6.25 87.5C4.5924 87.5 3.00269 88.1585 1.83058 89.3306C0.65848 90.5027 0 92.0924 0 93.75C0 95.4076 0.65848 96.9973 1.83058 98.1694C3.00269 99.3415 4.5924 100 6.25 100ZM0 73.4375C0 76.0352 2.08984 78.125 4.6875 78.125C14.1797 78.125 21.875 85.8203 21.875 95.3125C21.875 97.9102 23.9648 100 26.5625 100C29.1602 100 31.25 97.9102 31.25 95.3125C31.25 80.6445 19.3555 68.75 4.6875 68.75C2.08984 68.75 0 70.8398 0 73.4375Z" fill="white" fill-opacity="0.4"/>
</g>
<defs>
<clipPath id="clip0_464_362">
<rect width="112.5" height="100" fill="white"/>
</clipPath>
</defs>
</svg>
