<svg width="76" height="101" viewBox="0 0 76 101" fill="none" xmlns="http://www.w3.org/2000/svg">
<g clip-path="url(#clip0_419_6)">
<path d="M55.2939 48.6646C58.1064 44.6411 59.7471 39.7388 59.7471 34.4263C59.7471 20.6177 48.5557 9.42627 34.7471 9.42627C20.9385 9.42627 9.74707 20.6177 9.74707 34.4263C9.74707 39.7388 11.3877 44.6411 14.2002 48.6646C14.9229 49.6997 15.7822 50.8716 16.7002 52.1216C19.2197 55.5786 22.2275 59.7192 24.4736 63.8013C26.5049 67.5122 27.54 71.3794 28.0479 75.0317H18.5361C18.1064 72.688 17.3838 70.4028 16.2314 68.2935C14.2979 64.7778 11.8955 61.4771 9.49316 58.1763C8.47754 56.7896 7.46191 55.4028 6.48535 53.9966C2.6377 48.4692 0.37207 41.7114 0.37207 34.4263C0.37207 15.4419 15.7627 0.0512695 34.7471 0.0512695C53.7314 0.0512695 69.1221 15.4419 69.1221 34.4263C69.1221 41.7114 66.8564 48.4692 62.9893 54.0161C62.0127 55.4224 60.9971 56.8091 59.9814 58.1958C57.5791 61.4771 55.1768 64.7778 53.2432 68.313C52.0908 70.4224 51.3682 72.7075 50.9385 75.0513H41.4658C41.9736 71.3989 43.0088 67.5122 45.04 63.8208C47.2861 59.7388 50.2939 55.5981 52.8135 52.1411C53.7314 50.8911 54.5713 49.7192 55.2939 48.6841V48.6646ZM34.7471 25.0513C29.5713 25.0513 25.3721 29.2505 25.3721 34.4263C25.3721 36.145 23.9658 37.5513 22.2471 37.5513C20.5283 37.5513 19.1221 36.145 19.1221 34.4263C19.1221 25.7935 26.1143 18.8013 34.7471 18.8013C36.4658 18.8013 37.8721 20.2075 37.8721 21.9263C37.8721 23.645 36.4658 25.0513 34.7471 25.0513ZM34.7471 100.051C26.1143 100.051 19.1221 93.0591 19.1221 84.4263V81.3013H50.3721V84.4263C50.3721 93.0591 43.3799 100.051 34.7471 100.051Z" fill="white" fill-opacity="0.4"/>
</g>
<defs>
<clipPath id="clip0_419_6">
<rect width="75" height="100" fill="white" transform="translate(0.37207 0.0512695)"/>
</clipPath>
</defs>
</svg>
