<svg width="38" height="30" viewBox="0 0 38 30" fill="none" xmlns="http://www.w3.org/2000/svg">
<g clip-path="url(#clip0_456_2763)">
<path d="M5.16828 18.1113C5.7425 17.0391 5.56672 15.7207 4.72883 14.8418C3.48078 13.5293 2.81281 11.9531 2.81281 10.3125C2.81281 6.5918 6.55109 2.8125 12.1878 2.8125C17.8245 2.8125 21.5628 6.5918 21.5628 10.3125C21.5628 14.0332 17.8245 17.8125 12.1878 17.8125C11.4202 17.8125 10.6761 17.7363 9.97297 17.6016C9.36359 17.4844 8.73078 17.5664 8.17414 17.8477C7.93391 17.9707 7.68781 18.0879 7.43586 18.1992C6.49836 18.6211 5.50812 18.9902 4.51203 19.2539C4.67609 18.9844 4.82844 18.7207 4.97492 18.457C5.03937 18.3457 5.10383 18.2285 5.16242 18.1113H5.16828ZM0.000311796 10.3125C0.000311796 12.7617 1.00812 15.0059 2.68977 16.7754C2.63703 16.875 2.57844 16.9805 2.5257 17.0742C1.92219 18.1523 1.21906 19.2129 0.381171 20.127C-0.00554758 20.5371 -0.105157 21.1348 0.11164 21.6445C0.340156 22.166 0.844062 22.5 1.40656 22.5C3.92609 22.5 6.47492 21.7207 8.59602 20.7598C8.87727 20.6309 9.15852 20.4961 9.42805 20.3613C10.3128 20.5371 11.2386 20.625 12.1878 20.625C18.9202 20.625 24.3753 16.0078 24.3753 10.3125C24.3753 4.61719 18.9202 0 12.1878 0C5.45539 0 0.000311796 4.61719 0.000311796 10.3125ZM25.3128 28.125C26.262 28.125 27.182 28.0313 28.0726 27.8613C28.3421 27.9961 28.6234 28.1309 28.9046 28.2598C31.0257 29.2207 33.5745 30 36.0941 30C36.6566 30 37.1605 29.666 37.3831 29.1504C37.6058 28.6348 37.5003 28.0371 37.1136 27.6328C36.2816 26.7188 35.5784 25.6582 34.9691 24.5801C34.9163 24.4805 34.8577 24.3809 34.805 24.2812C36.4925 22.5059 37.5003 20.2617 37.5003 17.8125C37.5003 12.2812 32.3499 7.76367 25.887 7.51172C26.1273 8.40234 26.2503 9.33984 26.2503 10.3125V10.3477C31.3597 10.7402 34.6878 14.3027 34.6878 17.8125C34.6878 19.4531 34.0198 21.0293 32.7718 22.3359C31.9339 23.2148 31.7581 24.5391 32.3323 25.6055C32.3968 25.7227 32.4613 25.8398 32.5198 25.9512C32.6663 26.2148 32.8245 26.4785 32.9827 26.748C31.9866 26.4844 30.9964 26.1211 30.0589 25.6934C29.807 25.582 29.5609 25.4648 29.3206 25.3418C28.764 25.0605 28.1312 24.9785 27.5218 25.0957C26.8128 25.2363 26.0745 25.3066 25.307 25.3066C21.6917 25.3066 18.8616 23.7539 17.2913 21.6563C16.3538 21.9727 15.3695 22.207 14.3616 22.3477C16.348 25.7695 20.5081 28.125 25.3128 28.125Z" fill="#3EC584"/>
</g>
<defs>
<clipPath id="clip0_456_2763">
<rect width="37.5" height="30" fill="white"/>
</clipPath>
</defs>
</svg>
