<svg width="25" height="21" viewBox="0 0 25 21" fill="none" xmlns="http://www.w3.org/2000/svg">
<g clip-path="url(#clip0_451_48)">
<path d="M13.5524 0.961441L13.5531 0.962993L16.2831 6.38936L16.4005 6.62278L16.6592 6.65965L22.7591 7.52901C22.7593 7.52904 22.7595 7.52907 22.7597 7.5291C23.0892 7.57707 23.3502 7.79768 23.4488 8.08604C23.5455 8.36857 23.469 8.68637 23.2412 8.9038L23.241 8.90399L18.8171 13.1327L18.6239 13.3174L18.6701 13.5806L19.7185 19.5551C19.7185 19.5553 19.7186 19.5556 19.7186 19.5558C19.769 19.8497 19.6443 20.1563 19.3761 20.3448C19.1119 20.5304 18.7547 20.5548 18.4567 20.4033C18.4563 20.4032 18.456 20.403 18.4556 20.4028L13.0105 17.5943L12.7813 17.4761L12.5521 17.5943L7.10697 20.4028C7.10661 20.403 7.10625 20.4032 7.10588 20.4034C6.81056 20.5534 6.45164 20.5285 6.1838 20.3429C5.91983 20.16 5.79312 19.8515 5.84401 19.5556C5.84403 19.5554 5.84406 19.5553 5.84408 19.5551L6.88833 13.5802L6.9343 13.3172L6.74128 13.1327L2.31729 8.90399L2.31709 8.9038C2.09187 8.68876 2.01485 8.37023 2.11078 8.08221C2.20487 7.7997 2.46632 7.57747 2.79864 7.5291C2.79884 7.52907 2.79904 7.52904 2.79924 7.52901L8.89492 6.65964L9.15356 6.62275L9.27098 6.38936L12 0.964792C12.0002 0.964537 12.0003 0.964282 12.0004 0.964026C12.1425 0.685249 12.4386 0.5 12.777 0.5C13.1183 0.5 13.4157 0.68747 13.5524 0.961441Z" fill="#F4FF00" stroke="#CFCFCF"/>
</g>
<defs>
<clipPath id="clip0_451_48">
<rect width="24.4551" height="21" fill="white" transform="translate(0.544922)"/>
</clipPath>
</defs>
</svg>
