<svg width="46" height="52" viewBox="0 0 46 52" fill="none" xmlns="http://www.w3.org/2000/svg">
<path d="M22.9719 51.9209L4.18634 46.7869L0 0.562157H46.0001L41.8093 46.7799L22.9719 51.9209Z" fill="#4353AD"/>
<path d="M38.2216 43.8369L41.8025 4.34186H22.9999V47.9912L38.2216 43.8369Z" fill="#485FB5"/>
<path d="M23 36.2096L22.9747 36.2161L16.5613 34.5112L16.1513 29.9898H10.3704L11.1771 38.8914L22.9735 42.1152L23 42.1081V36.2096ZM8.55991 10.0111L9.08337 15.6803H23V10.0111H8.55991ZM9.59704 21.4857L10.1131 27.155H23V21.4857H9.59704Z" fill="#EDEDED"/>
<path d="M36.3662 21.4858L37.4057 10.0113H22.9802V15.6804H31.0947L30.5708 21.4858H22.9802V27.1551H30.0715L29.4026 34.508L22.98 36.2144V42.1125L34.7856 38.8915L34.872 37.9338L36.2257 23.0082L36.3662 21.4858Z" fill="white"/>
</svg>
