<svg width="46" height="52" viewBox="0 0 46 52" fill="none" xmlns="http://www.w3.org/2000/svg">
<path d="M4.16571 46.2839L0 0.0589981H45.7746L41.6044 46.2766L22.8592 51.418L4.16571 46.2839Z" fill="#E53D20"/>
<path d="M22.8872 47.4882L38.0342 43.3337L41.5979 3.83854H22.8872V47.4882Z" fill="#F15123"/>
<path d="M22.8873 20.9829H15.3044L14.7806 15.1773H22.8873V9.50801H22.8674H8.51782L8.65504 11.029L10.0635 26.652H22.8873V20.9829Z" fill="#EDEDED"/>
<path d="M22.8874 35.7064L22.8623 35.7131L16.4802 34.0081L16.0721 29.4866H12.971H10.3196L11.1225 38.3882L22.861 41.6121L22.8874 41.6048V35.7064Z" fill="#EDEDED"/>
<path d="M22.8674 20.9828V26.6519H29.9239L29.2588 34.0046L22.8674 35.7112V41.6094L34.6153 38.3883L34.7014 37.4305L36.0481 22.5051L36.1879 20.9828H34.6437H22.8674Z" fill="white"/>
<path d="M22.8674 9.50817V15.1775H36.6909H36.7093L36.8243 13.9031L37.0853 11.0291L37.2224 9.50817H22.8674Z" fill="white"/>
</svg>
