<svg width="65" height="65" viewBox="0 0 65 65" fill="none" xmlns="http://www.w3.org/2000/svg">
<path d="M0 0.49707H65V64.418H0V0.49707Z" fill="#F7DF1E"/>
<path d="M17.0909 53.9141L22.0652 50.9538C23.0248 52.627 23.8978 54.0427 25.9917 54.0427C27.9989 54.0427 29.2643 53.2705 29.2643 50.2673V29.843H35.3726V50.3522C35.3726 56.5738 31.6641 59.4057 26.2536 59.4057C21.3671 59.4057 18.5306 56.917 17.0908 53.9136" fill="black"/>
<path d="M38.6904 53.2703L43.6641 50.4384C44.9734 52.541 46.675 54.0856 49.6854 54.0856C52.2164 54.0856 53.8304 52.8412 53.8304 51.1248C53.8304 49.0653 52.1725 48.3358 49.3799 47.1348L47.8533 46.4907C43.4462 44.646 40.5227 42.329 40.5227 37.4375C40.5227 32.9321 44.0132 29.4994 49.4674 29.4994C53.3507 29.4994 56.1431 30.8297 58.15 34.3052L53.3941 37.3086C52.3468 35.4637 51.2127 34.7344 49.4675 34.7344C47.6786 34.7344 46.5441 35.85 46.5441 37.3086C46.5441 39.1108 47.6786 39.8404 50.2962 40.956L51.8232 41.5996C57.0155 43.788 59.9389 46.019 59.9389 51.039C59.9389 56.4457 55.6194 59.406 49.8165 59.406C44.1443 59.406 40.4792 56.7459 38.6905 53.2703" fill="black"/>
</svg>
