<svg width="64" height="57" viewBox="0 0 64 57" fill="none" xmlns="http://www.w3.org/2000/svg">
<path d="M52.326 18.9247C51.6668 18.7005 50.9837 18.4883 50.2803 18.2877C50.3959 17.8215 50.502 17.3613 50.5964 16.9089C52.1449 9.48092 51.1324 3.49688 47.6749 1.52668C44.3597 -0.362483 38.9378 1.60727 33.4619 6.31626C32.9354 6.76907 32.4073 7.24849 31.8795 7.75093C31.5278 7.4185 31.1767 7.09725 30.8265 6.78997C25.0877 1.75482 19.3353 -0.367066 15.8813 1.60884C12.5692 3.50347 11.5883 9.12904 12.9823 16.1686C13.1169 16.8485 13.2742 17.5429 13.4522 18.2489C12.638 18.4773 11.8521 18.7207 11.1001 18.9797C4.37191 21.2976 0.0749817 24.9304 0.0749817 28.6986C0.0749817 32.5904 4.68773 36.4939 11.6957 38.8608C12.2487 39.0476 12.8225 39.2242 13.4139 39.3918C13.222 40.1554 13.055 40.9036 12.9148 41.6334C11.5857 48.5508 12.6237 54.0435 15.927 55.9262C19.339 57.8704 25.0653 55.8719 30.6412 51.0557C31.0819 50.6749 31.5242 50.2712 31.9673 49.848C32.5416 50.3945 33.115 50.9117 33.6853 51.3968C39.0863 55.9894 44.4206 57.8439 47.7209 55.956C51.1295 54.0061 52.2373 48.1057 50.7991 40.9269C50.6892 40.3786 50.5614 39.8185 50.4179 39.2484C50.82 39.1309 51.2148 39.0097 51.5997 38.8836C58.8851 36.4983 63.6252 32.6423 63.6252 28.6986C63.6252 24.9168 59.1897 21.2595 52.326 18.9247Z" fill="#53C1DE"/>
<path d="M50.7459 36.3371C50.3984 36.4508 50.0419 36.5607 49.6785 36.6672C48.8743 34.1512 47.7888 31.4758 46.4604 28.7116C47.728 26.0133 48.7715 23.3721 49.5533 20.8724C50.2034 21.0583 50.8344 21.2544 51.4424 21.4613C57.3232 23.4618 60.9104 26.4195 60.9104 28.6986C60.9104 31.1262 57.0363 34.2775 50.7459 36.3371ZM48.1358 41.4478C48.7718 44.6222 48.8626 47.4922 48.4414 49.7359C48.0629 51.7519 47.3017 53.096 46.3605 53.6343C44.3578 54.7798 40.0749 53.2908 35.4559 49.3632C34.9264 48.9129 34.393 48.4322 33.858 47.9234C35.6487 45.9882 37.4383 43.7384 39.185 41.2398C42.2572 40.9704 45.1597 40.53 47.7918 39.9288C47.9215 40.4455 48.0366 40.9523 48.1358 41.4478ZM21.7407 53.4364C19.784 54.1192 18.2256 54.1388 17.2835 53.602C15.2789 52.4596 14.4456 48.0495 15.5823 42.1337C15.7125 41.4562 15.8675 40.7603 16.0461 40.0489C18.6494 40.6178 21.5307 41.0271 24.6102 41.2738C26.3686 43.7187 28.21 45.966 30.0656 47.9338C29.6602 48.3205 29.2563 48.6887 28.8547 49.0357C26.3891 51.1654 23.9183 52.6764 21.7407 53.4364ZM12.5737 36.3223C9.47493 35.2757 6.91585 33.9155 5.16172 32.4312C3.58552 31.0973 2.78973 29.7731 2.78973 28.6986C2.78973 26.4119 6.23974 23.4953 11.9937 21.5129C12.6919 21.2724 13.4228 21.0457 14.1812 20.8327C14.9765 23.3889 16.0196 26.0614 17.2785 28.7638C16.0033 31.5064 14.9453 34.2215 14.1423 36.8076C13.6016 36.654 13.0778 36.4924 12.5737 36.3223ZM15.6466 15.6534C14.4523 9.62206 15.2454 5.07225 17.2414 3.93055C19.3675 2.71429 24.0688 4.44842 29.0239 8.79602C29.3406 9.0739 29.6586 9.36475 29.9775 9.66566C28.131 11.6248 26.3065 13.8552 24.5637 16.2857C21.5749 16.5595 18.7139 16.9992 16.0834 17.588C15.9181 16.9307 15.7716 16.2848 15.6466 15.6534ZM43.0593 22.3421C42.4305 21.2688 41.7849 20.2209 41.1268 19.2016C43.1544 19.4548 45.0971 19.7911 46.9215 20.2025C46.3738 21.9371 45.6911 23.7507 44.8875 25.6099C44.311 24.5285 43.7013 23.4381 43.0593 22.3421ZM31.8804 11.5829C33.1327 12.9234 34.3867 14.4201 35.6201 16.044C34.3772 15.986 33.1189 15.9559 31.8501 15.9559C30.5934 15.9559 29.3443 15.9854 28.1091 16.0424C29.3438 14.4336 30.6087 12.9389 31.8804 11.5829ZM20.63 22.3606C20.0019 23.4369 19.4035 24.5214 18.8361 25.6079C18.0455 23.7552 17.3691 21.9333 16.8167 20.1741C18.6298 19.7732 20.5634 19.4453 22.5781 19.1969C21.9107 20.2256 21.2599 21.2812 20.63 22.3604V22.3606ZM22.6362 38.3916C20.5546 38.1621 18.592 37.8512 16.7792 37.4613C17.3405 35.6707 18.0318 33.8099 18.8391 31.9173C19.408 33.003 20.0088 34.0879 20.6408 35.1666H20.6409C21.2846 36.2655 21.9516 37.3419 22.6362 38.3916ZM31.9556 46.0034C30.6688 44.6315 29.3854 43.114 28.1319 41.4817C29.3487 41.5289 30.5893 41.553 31.8501 41.553C33.1454 41.553 34.426 41.5242 35.6863 41.4688C34.4488 43.1304 33.1993 44.6503 31.9556 46.0034ZM44.9134 31.8209C45.7628 33.7339 46.4789 35.585 47.0474 37.345C45.2048 37.7604 43.2154 38.095 41.1193 38.3436C41.779 37.3105 42.4302 36.2446 43.0701 35.1482C43.7175 34.0389 44.3322 32.9279 44.9134 31.8209ZM40.7185 33.8079C39.7251 35.51 38.7052 37.1348 37.6699 38.6685C35.7841 38.8017 33.8358 38.8704 31.8501 38.8704C29.8725 38.8704 27.9488 38.8097 26.0964 38.6908C25.0192 37.137 23.9772 35.5074 22.9901 33.8226H22.9903C22.0059 32.1423 21.0998 30.4479 20.2788 28.7629C21.0996 27.0741 22.0033 25.3777 22.9821 23.7005L22.9819 23.7008C23.9633 22.0191 24.9962 20.3975 26.0633 18.8534C27.9533 18.7122 29.8914 18.6385 31.85 18.6385H31.8501C33.8176 18.6385 35.7582 18.7128 37.6476 18.8552C38.6984 20.388 39.7243 22.0044 40.7096 23.6863C41.706 25.3871 42.6214 27.0722 43.4492 28.7248C42.6239 30.4059 41.7106 32.1079 40.7185 33.8079ZM46.3189 3.85074C48.447 5.06342 49.2746 9.95416 47.9375 16.3674C47.8522 16.7766 47.7562 17.1935 47.6519 17.6159C45.0153 17.0147 42.1523 16.5674 39.1548 16.2895C37.4086 13.8323 35.599 11.5984 33.7826 9.66443C34.271 9.20021 34.7586 8.75757 35.2443 8.33986C39.936 4.30523 44.321 2.71228 46.3189 3.85074Z" fill="#2B2B2B"/>
<path d="M31.8501 23.0911C34.9842 23.0911 37.5249 25.6016 37.5249 28.6986C37.5249 31.7956 34.9842 34.3062 31.8501 34.3062C28.716 34.3062 26.1753 31.7956 26.1753 28.6986C26.1753 25.6016 28.716 23.0911 31.8501 23.0911Z" fill="#53C1DE"/>
</svg>
